<svg xmlns="http://www.w3.org/2000/svg" xmlns:xlink="http://www.w3.org/1999/xlink" width="500" zoomAndPan="magnify" viewBox="0 0 375 374.999991" height="500" preserveAspectRatio="xMidYMid meet" version="1.0"><defs><g/><clipPath id="0f617a5985"><path d="M 1.058594 10.386719 L 375 10.386719 L 375 364.386719 L 1.058594 364.386719 Z M 1.058594 10.386719 " clip-rule="nonzero"/></clipPath><clipPath id="4e6c7decc6"><path d="M 1.058594 22.386719 L 1.058594 352.613281 C 1.058594 359.238281 6.433594 364.613281 13.058594 364.613281 L 363 364.613281 C 369.628906 364.613281 375 359.238281 375 352.613281 L 375 22.386719 C 375 15.761719 369.628906 10.386719 363 10.386719 L 13.058594 10.386719 C 6.433594 10.386719 1.058594 15.761719 1.058594 22.386719 Z M 1.058594 22.386719 " clip-rule="nonzero"/></clipPath></defs><g clip-path="url(#0f617a5985)"><g clip-path="url(#4e6c7decc6)"><path fill="#8dc63f" d="M 365.140625 345.183594 L 338.75 295.179688 L 331.394531 281.136719 L 289.644531 281.136719 L 297 295.179688 L 312.25 324.125 L 64.011719 324.125 L 79.261719 295.179688 L 145.351562 170.214844 L 171.3125 121.179688 L 188.183594 89.425781 L 208.519531 127.878906 L 229.394531 88.457031 L 188.183594 10.476562 L 150.542969 81.652344 L 124.585938 130.6875 L 37.621094 295.179688 L 11.121094 345.183594 L 1.058594 364.300781 L 375.308594 364.300781 Z M 365.140625 345.183594 " fill-opacity="1" fill-rule="nonzero"/></g></g><g fill="#ffffff" fill-opacity="1"><g transform="translate(157.814143, 223.400221)"><g><path d="M 18.671875 0 L 10.703125 0 L 10.703125 -51.65625 L 18.671875 -51.65625 L 18.671875 -24.875 L 30.1875 -34.609375 L 49.890625 -51.65625 L 61.109375 -51.65625 L 36.3125 -30.625 L 60.65625 0 L 50.328125 0 L 30.328125 -25.53125 L 18.671875 -15.578125 Z M 18.671875 0 "/></g></g></g><g fill="#ffffff" fill-opacity="1"><g transform="translate(225.834683, 223.400221)"><g><path d="M 28.5625 0.953125 C 23.9375 0.953125 20.035156 0.179688 16.859375 -1.359375 C 13.691406 -2.910156 11.296875 -4.925781 9.671875 -7.40625 C 8.046875 -9.894531 7.234375 -12.539062 7.234375 -15.34375 C 7.234375 -18.695312 8.21875 -21.75 10.1875 -24.5 C 12.15625 -27.257812 15.203125 -29.546875 19.328125 -31.359375 C 18.347656 -32.691406 17.523438 -34.035156 16.859375 -35.390625 C 16.191406 -36.742188 15.859375 -38.132812 15.859375 -39.5625 C 15.859375 -41.675781 16.519531 -43.726562 17.84375 -45.71875 C 19.175781 -47.707031 21.097656 -49.34375 23.609375 -50.625 C 26.117188 -51.90625 29.144531 -52.546875 32.6875 -52.546875 C 37.113281 -52.546875 40.851562 -51.5625 43.90625 -49.59375 C 46.957031 -47.625 49.195312 -45.238281 50.625 -42.4375 L 45.09375 -37.859375 C 43.613281 -40.566406 41.828125 -42.5 39.734375 -43.65625 C 37.648438 -44.8125 35.398438 -45.390625 32.984375 -45.390625 C 30.035156 -45.390625 27.957031 -44.832031 26.75 -43.71875 C 25.539062 -42.613281 24.9375 -41.375 24.9375 -40 C 24.9375 -38.71875 25.367188 -37.390625 26.234375 -36.015625 C 27.097656 -34.640625 28.144531 -33.3125 29.375 -32.03125 C 30.601562 -30.75 31.734375 -29.59375 32.765625 -28.5625 L 45.53125 -16.09375 C 46.164062 -17.21875 46.664062 -18.46875 47.03125 -19.84375 C 47.40625 -21.226562 47.644531 -22.707031 47.75 -24.28125 L 55.34375 -24.28125 C 55.25 -21.625 54.796875 -19.125 53.984375 -16.78125 C 53.171875 -14.445312 52.097656 -12.320312 50.765625 -10.40625 C 52.492188 -8.53125 54.21875 -6.632812 55.9375 -4.71875 C 57.65625 -2.800781 59.035156 -1.226562 60.078125 0 L 49.734375 0 C 49.097656 -0.6875 48.394531 -1.472656 47.625 -2.359375 C 46.863281 -3.242188 46.140625 -4.054688 45.453125 -4.796875 C 43.097656 -2.929688 40.46875 -1.503906 37.5625 -0.515625 C 34.65625 0.460938 31.65625 0.953125 28.5625 0.953125 Z M 16.09375 -16.609375 C 16.09375 -14.929688 16.535156 -13.328125 17.421875 -11.796875 C 18.304688 -10.273438 19.726562 -9.046875 21.6875 -8.109375 C 23.65625 -7.179688 26.265625 -6.71875 29.515625 -6.71875 C 31.390625 -6.71875 33.25 -7 35.09375 -7.5625 C 36.9375 -8.125 38.644531 -8.972656 40.21875 -10.109375 L 27.828125 -22.4375 C 27.285156 -22.976562 26.691406 -23.554688 26.046875 -24.171875 C 25.410156 -24.785156 24.796875 -25.410156 24.203125 -26.046875 C 21.109375 -25.066406 18.984375 -23.75 17.828125 -22.09375 C 16.671875 -20.445312 16.09375 -18.617188 16.09375 -16.609375 Z M 16.09375 -16.609375 "/></g></g></g><g fill="#ffffff" fill-opacity="1"><g transform="translate(292.010858, 223.400221)"><g><path d="M 18.671875 0 L 10.703125 0 L 10.703125 -51.65625 L 18.671875 -51.65625 L 18.671875 -24.875 L 30.1875 -34.609375 L 49.890625 -51.65625 L 61.109375 -51.65625 L 36.3125 -30.625 L 60.65625 0 L 50.328125 0 L 30.328125 -25.53125 L 18.671875 -15.578125 Z M 18.671875 0 "/></g></g></g></svg>